<svg width="44.720012" height="44.93844962606409" viewBox="0 0 65.18518518518516 65.82600313907912" class="looka-1j8o68f">
    <defs id="SvgjsDefs1011"></defs>
    <g id="SvgjsG1012" featurekey="symbolFeature-0" transform="matrix(0.8470157022308203,0,0,0.8470157022308203,-9.943051362176806,-9.437783542001457)" fill="#E63036">
        <g xmlns="http://www.w3.org/2000/svg">
            <g>
                <path d="M12.4174805,69.953125c1.3095703,2.4072266,4.3066406,3.6347656,8.7792969,3.6342773    c1.3605347,0,2.8657837-0.1204834,4.493042-0.3491821c6.2363892,6.364502,14.8360596,10.1434937,23.9517822,10.234436h0.7353516    c2.4348755-0.024353,4.8299561-0.3241577,7.1568604-0.8548584c3.4014893,2.9371948,6.4539795,4.6434326,9.0280762,5.0365601    c0.5646362,0.7271118,1.437439,1.2032471,2.4292603,1.2032471c1.7045288,0,3.0863037-1.3817749,3.0863037-3.0863037    c0-0.0097656-0.0028076-0.0187988-0.0028687-0.0285645c1.8986206-2.2652588,2.4727173-6.3414307,1.6796875-11.9669189    c2.2971191-2.2399902,4.3047485-4.8082275,5.9146729-7.6771851c2.8344727-5.0366211,4.3325195-10.7822266,4.3325195-16.6162109    c0-2.5409546-0.3009033-5.0609741-0.855835-7.5169067c4.6065674-5.3457642,6.1470337-9.8150024,4.4359131-12.947937    c-1.7108765-3.133606-6.2953491-4.2616577-13.2702637-3.2932129c-6.2355347-6.362915-14.8312378-10.1407471-23.9343262-10.2316895    c-0.0053711,0-0.0102539,0-0.0151367,0h-0.7353516c-2.4301147,0.024292-4.8206787,0.3228149-7.1433105,0.8515015    c-4.8305664-4.1721802-8.9442139-5.8249512-12.0044556-4.8378296c-0.4281006-0.2247314-0.90802-0.3639526-1.4250488-0.3639526    c-1.7044678,0-3.0862427,1.3817749-3.0862427,3.0862427c0,0.6480713,0.2014771,1.2480469,0.5427856,1.7446289    c-0.704895,2.3049927-0.7949829,5.4080811-0.2648926,9.2199097c-2.2955322,2.2391968-4.3017578,4.8061523-5.9108276,7.6735229    C17.5,37.9023438,16.0014648,43.6479492,16.0014648,49.4824219c0,2.545105,0.3019409,5.0690918,0.8586426,7.5287476    C12.2485352,62.3519897,10.7059326,66.8198242,12.4174805,69.953125z M50.3618164,80.4726563h-0.7050781    c-7.5881348-0.0757446-14.789856-2.9621582-20.31427-7.8916016c0.3484497-0.0751343,0.6995239-0.1535645,1.0553589-0.2369385    c0.5575562,0.5516357,1.3232422,0.8933716,2.1695557,0.8933716c1.4299927,0,2.6213379-0.977478,2.9716797-2.2972412    c1.5529785-0.4827881,3.1502075-1.0335693,4.7705688-1.6345825c1.1072388,1.5132446,2.8908691,2.5019531,4.9052124,2.5019531    c0.7670898,0,1.4986572-0.1486816,2.1751099-0.4089966c2.4887085,3.3250122,5.0092773,6.2747803,7.4266968,8.6931152    C53.3526001,80.3222046,51.8658447,80.4576416,50.3618164,80.4726563z M42.1337891,65.7260742    c0-1.6987305,1.3823242-3.0810547,3.0810547-3.0810547c1.6992188,0,3.081543,1.3823242,3.081543,3.0810547    c0,1.6992188-1.3823242,3.081543-3.081543,3.081543C43.5161133,68.8076172,42.1337891,67.425293,42.1337891,65.7260742z     M70.291626,82.9813843c-0.3963623-0.1852417-0.8340454-0.2963257-1.3004761-0.2963257    c-1.2502441,0-2.321106,0.7468262-2.8061523,1.8157349c-1.4575806-0.4222412-3.2136841-1.4039307-5.1424561-2.8811035    c3.6018677-1.2411499,6.9748535-3.0720825,9.9669189-5.4207153C71.2494507,79.1699829,70.9985962,81.513855,70.291626,82.9813843z     M77.0537109,64.6289063c-4.0796509,7.2705688-10.8842773,12.505188-18.7046509,14.6995239    c-2.7139282-2.5098267-5.6261597-5.8162842-8.5097656-9.6627808c0.9063721-1.0623779,1.4570923-2.4368896,1.4570923-3.9395752    c0-0.3782959-0.0393677-0.7470703-0.1057739-1.1064453c1.8659668-0.9076538,3.7183228-1.8485107,5.5105591-2.8256836    c3.6318359-1.9741211,7.1245117-4.0883789,10.3774414-6.2807617c3.0716553-2.0526733,5.8931885-4.145813,8.4202881-6.2276611    c0.3303833,0.1207886,0.6824951,0.1970825,1.0547485,0.1970825c1.7045288,0,3.0863037-1.3817749,3.0863037-3.0863037    c0-0.2362061-0.0319824-0.4639282-0.0822144-0.6849365c0.3664551-0.3485718,0.7076416-0.6937866,1.0541382-1.0396729    c0.24823,1.5863037,0.3895874,3.1931763,0.3895874,4.81073C81.0014648,54.8022461,79.6367188,60.0390625,77.0537109,64.6289063z     M84.9487305,30.4550781c0.8862305,1.62323-0.1572266,4.5228271-2.7961426,7.9807129    c-0.6599121-1.9248047-1.4835205-3.7919312-2.482666-5.5671387c-0.8730469-1.5558472-1.8721313-3.0151978-2.9588623-4.3930054    C81.0512695,28.1308594,84.0592041,28.8269043,84.9487305,30.4550781z M49.6416016,18.4926758h0.7133789    c11.0483398,0.1132813,21.277832,6.1835938,26.699707,15.8457031c1.206604,2.1437378,2.1357422,4.4328003,2.7956543,6.8023682    c-0.7168579,0.7728882-1.4790649,1.5541382-2.3087158,2.3456421c-0.3118286-0.105957-0.6403198-0.1763306-0.9879761-0.1763306    c-1.7044678,0-3.0862427,1.3817749-3.0862427,3.0862427c0,0.2140503,0.0220337,0.4229126,0.0635376,0.6246948    c-2.432373,1.9998169-5.1541138,4.0166016-8.1242065,6.0014648c-3.1791992,2.1425781-6.5898438,4.2070313-10.1396484,6.1367188    c-1.736084,0.9458618-3.5288086,1.8569336-5.3345947,2.7365112c-1.1159668-1.3717041-2.8154297-2.2506714-4.7176514-2.2506714    c-0.6588135,0-1.2919922,0.1086426-1.8865967,0.3033447c-1.0057983-1.6640015-2.0109253-3.3930664-2.9952393-5.1988525    c-1.9272461-3.543457-3.6772461-7.1264648-5.2011719-10.6484375c-2.8220825-6.5292969-4.7666016-12.6602173-5.671936-17.815918    C34.9677124,21.4185181,42.116272,18.5679321,49.6416016,18.4926758z M29.262085,17.2939453    c1.604126-0.1090698,2.8754272-1.4301147,2.8775024-3.0614014c1.6850586-0.0841675,4.0786133,1.0074463,6.8267822,3.1113281    c-3.604187,1.241272-6.979187,3.072937-9.9729614,5.4229736C28.8192139,20.5625,28.9137573,18.7056885,29.262085,17.2939453z     M22.949707,34.3364258c1.1206665-1.9972534,2.4567261-3.8307495,3.953186-5.5001831    c1.0606079,4.9281616,2.9212646,10.5458374,5.4755249,16.4557495c1.5595703,3.6044922,3.3491211,7.2685547,5.3198242,10.8920898    c1.0176392,1.8674316,2.0575562,3.6561279,3.0984497,5.3763428c-1.027832,1.0894775-1.6629028,2.5532837-1.6629028,4.1656494    c0,0.2698975,0.0237427,0.5338135,0.0579834,0.7944946c-1.4935303,0.5527954-2.9634399,1.0595093-4.3934937,1.5072021    c-0.5621948-0.5905762-1.3511963-0.9628296-2.230896-0.9628296c-1.4660645,0-2.6875,1.0246582-3.0021973,2.3951416    c-0.9516602,0.2202759-1.869873,0.4054565-2.7597656,0.5623779c-1.4575806-1.6412964-2.7597656-3.4405518-3.8566895-5.3955078    c-2.5825195-4.5878906-3.9472656-9.824707-3.9472656-15.1445313    C19.0014648,44.1621094,20.3662109,38.9257813,22.949707,34.3364258z M17.8532715,60.536499    c0.659668,1.9223633,1.4822998,3.7871704,2.4802246,5.5601807c0.8731079,1.5559082,1.8723145,3.0153809,2.9591675,4.3932495    c-4.3446045,0.3512573-7.3534546-0.3409424-8.241394-1.9723511C14.1643066,66.8927612,15.2095337,63.9935303,17.8532715,60.536499    z">
                </path>
            </g>
        </g>
    </g>
    
</svg>